<svg width="512" height="512" xmlns="http://www.w3.org/2000/svg" class="ionicon">

 <g>
  <title>background</title>
  <rect fill="none" id="canvas_background" height="402" width="582" y="-1" x="-1"/>
 </g>
 <g>
  <title>Layer 1</title>
  <path fill="#ffffff" id="svg_1" d="m256,118a22,22 0 0 1 -22,-22l0,-48a22,22 0 0 1 44,0l0,48a22,22 0 0 1 -22,22zm0,368a22,22 0 0 1 -22,-22l0,-48a22,22 0 0 1 44,0l0,48a22,22 0 0 1 -22,22zm113.14,-321.14a22,22 0 0 1 -15.56,-37.55l33.94,-33.94a22,22 0 0 1 31.11,31.11l-33.94,33.94a21.93,21.93 0 0 1 -15.55,6.44zm-260.22,260.22a22,22 0 0 1 -15.55,-37.56l33.94,-33.94a22,22 0 1 1 31.11,31.11l-33.94,33.94a21.94,21.94 0 0 1 -15.56,6.45zm355.08,-147.08l-48,0a22,22 0 0 1 0,-44l48,0a22,22 0 0 1 0,44zm-368,0l-48,0a22,22 0 0 1 0,-44l48,0a22,22 0 0 1 0,44zm307.08,147.08a21.94,21.94 0 0 1 -15.56,-6.45l-33.94,-33.94a22,22 0 0 1 31.11,-31.11l33.94,33.94a22,22 0 0 1 -15.55,37.56zm-260.22,-260.22a21.89,21.89 0 0 1 -15.55,-6.44l-33.94,-33.94a22,22 0 0 1 31.11,-31.11l33.94,33.94a22,22 0 0 1 -15.56,37.55zm113.14,193.14a102,102 0 1 1 102,-102a102.12,102.12 0 0 1 -102,102z"/>
 </g>
</svg>