<svg width="512" height="512" xmlns="http://www.w3.org/2000/svg" class="ionicon">

 <g>
  <title>background</title>
  <rect fill="none" id="canvas_background" height="402" width="582" y="-1" x="-1"/>
 </g>
 <g>
  <title>Layer 1</title>
  <path fill="#ffffff" id="svg_1" d="m396,432l-260,0c-36.44,0 -70.36,-12.57 -95.51,-35.41c-26.11,-23.71 -40.49,-56.59 -40.49,-92.59c0,-36.58 13.39,-68.12 38.72,-91.22c18.11,-16.53 42.22,-28.25 69.18,-33.87a16,16 0 0 0 11.37,-9.15a156.24,156.24 0 0 1 42.05,-56c26.44,-22.07 59.18,-33.76 94.68,-33.76a153.57,153.57 0 0 1 107.14,42.9c24.73,23.81 41.5,55.28 49.18,92a16,16 0 0 0 12.12,12.39c45.56,10.13 87.56,43.14 87.56,100.71c0,33.39 -12.24,60.78 -35.41,79.23c-20.36,16.2 -48.22,24.77 -80.59,24.77z"/>
 </g>
</svg>