<?xml version="1.0" encoding="utf-8"?>
<!-- Generator: Adobe Illustrator 27.0.0, SVG Export Plug-In . SVG Version: 6.00 Build 0)  -->
<svg version="1.1" id="Слой_1" xmlns="http://www.w3.org/2000/svg" xmlns:xlink="http://www.w3.org/1999/xlink" x="0px" y="0px"
	 viewBox="0 0 522 672.9" style="enable-background:new 0 0 522 672.9;" xml:space="preserve">
<style type="text/css">
	.st0{fill:#FFFFFF;stroke:#FFFFFF;stroke-miterlimit:10;}
	.st1{fill:#FFFFFF;stroke:#FFFFFF;stroke-width:20;stroke-linecap:round;stroke-miterlimit:10;}
</style>
<g>
	<path id="svg_1" class="st0" d="M401,437H141c-36.4,0-70.4-12.6-95.5-35.4C19.4,377.9,5,345,5,309c0-36.6,13.4-68.1,38.7-91.2
		c18.1-16.5,42.2-28.2,69.2-33.9c5-1,9.3-4.4,11.4-9.1c9.6-21.6,24-40.8,42-56C192.8,96.7,225.5,85,261,85
		c39.9-0.2,78.4,15.2,107.1,42.9c24.7,23.8,41.5,55.3,49.2,92c1.3,6.2,6,11,12.1,12.4C475,242.4,517,275.4,517,333
		c0,33.4-12.2,60.8-35.4,79.2C461.2,428.4,433.4,437,401,437L401,437z"/>
</g>
<line class="st1" x1="116" y1="488.9" x2="406" y2="488.9"/>
<line class="st1" x1="166" y1="557.8" x2="406" y2="557.8"/>
<line class="st1" x1="116" y1="626.7" x2="357.7" y2="626.7"/>
</svg>
