<svg width="512" height="512" xmlns="http://www.w3.org/2000/svg" class="ionicon">

 <g>
  <title>background</title>
  <rect fill="none" id="canvas_background" height="402" width="582" y="-1" x="-1"/>
 </g>
 <g>
  <title>Layer 1</title>
  <path fill="#ffffff" id="svg_1" d="m456.26,138.37c-16.77,-16.73 -39.17,-28.41 -65.17,-34a16,16 0 0 1 -11.19,-9a142.24,142.24 0 0 0 -42.19,-53.21c-23.23,-17.77 -51.48,-27.16 -81.71,-27.16a140.24,140.24 0 0 0 -93.5,35.32c-24.2,21.56 -40.91,51.34 -48.43,85.83a16.05,16.05 0 0 1 -11.72,12.18c-25,6.3 -35.71,12.54 -49.21,24.56c-19.14,17.04 -29.14,40.25 -29.14,66.91c0,30.55 11.23,55.64 32.47,72.56c18.61,14.81 44.03,22.64 73.53,22.64l234,0c33.2,0 64.11,-11.46 87,-32.28c23.84,-21.65 37,-51.67 37,-84.52c0,-31.49 -11,-59.09 -31.74,-79.83zm-344.26,308.63a16,16 0 0 1 -13.3,-24.88l32,-48a16,16 0 0 1 26.62,17.76l-32,48a16,16 0 0 1 -13.32,7.12zm48,48a16,16 0 0 1 -13.29,-24.88l64,-96a16,16 0 0 1 26.62,17.76l-64,96a16,16 0 0 1 -13.33,7.12zm112,-48a16,16 0 0 1 -13.3,-24.88l32,-48a16,16 0 0 1 26.62,17.76l-32,48a16,16 0 0 1 -13.32,7.12zm48,48a16,16 0 0 1 -13.3,-24.88l64,-96a16,16 0 0 1 26.62,17.76l-64,96a16,16 0 0 1 -13.32,7.12z"/>
 </g>
</svg>